<svg width="16" height="17" viewBox="0 0 16 17" fill="none" xmlns="http://www.w3.org/2000/svg">
<rect width="16" height="16" transform="translate(0 0.25)" fill="white" fill-opacity="0.01"/>
<g clip-path="url(#clip0_2382_448)">
<rect width="14" height="14" transform="translate(1 1.25)" fill="white" fill-opacity="0.01"/>
<g clip-path="url(#clip1_2382_448)">
<path d="M12.6888 11.0824C14.1771 9.75417 14.9996 8.24917 14.9996 8.24917C14.9996 8.24917 12.3746 3.43667 7.99963 3.43667C7.15928 3.43957 6.32843 3.61467 5.55838 3.95117L6.23213 4.6258C6.79864 4.41943 7.39671 4.31314 7.99963 4.31167C9.85463 4.31167 11.3938 5.33367 12.5216 6.46155C13.0644 7.00728 13.5511 7.60616 13.9741 8.24917C13.9234 8.3253 13.8674 8.4093 13.8035 8.50117C13.5104 8.92117 13.0773 9.48117 12.5216 10.0368C12.3773 10.1812 12.2268 10.3238 12.0693 10.462L12.6888 11.0824Z" fill="#6C757D"/>
<path d="M10.8845 9.27817C11.0798 8.73203 11.1159 8.14168 10.9888 7.57579C10.8616 7.0099 10.5764 6.49176 10.1663 6.08164C9.75617 5.67152 9.23803 5.3863 8.67214 5.25915C8.10625 5.132 7.5159 5.16816 6.96976 5.36342L7.68988 6.08355C8.02615 6.03542 8.36902 6.06626 8.6913 6.17364C9.01358 6.28102 9.30642 6.46198 9.54662 6.70218C9.78683 6.94239 9.96779 7.23523 10.0752 7.55751C10.1825 7.87979 10.2134 8.22265 10.1653 8.55892L10.8845 9.27817ZM8.30938 10.4148L9.02863 11.134C8.4825 11.3293 7.89214 11.3655 7.32625 11.2383C6.76037 11.1112 6.24222 10.8259 5.8321 10.4158C5.42198 10.0057 5.13676 9.48757 5.00961 8.92168C4.88246 8.35579 4.91862 7.76544 5.11388 7.2193L5.83401 7.93942C5.78588 8.27569 5.81672 8.61855 5.9241 8.94083C6.03148 9.26312 6.21244 9.55596 6.45264 9.79616C6.69285 10.0364 6.98569 10.2173 7.30797 10.3247C7.63025 10.4321 7.97311 10.4629 8.30938 10.4148Z" fill="#6C757D"/>
<path d="M3.93088 6.03542C3.77338 6.17542 3.62201 6.31717 3.47763 6.46155C2.93482 7.00728 2.44821 7.60616 2.02513 8.24917L2.19576 8.50117C2.48888 8.92117 2.92201 9.48117 3.47763 10.0368C4.60551 11.1647 6.14551 12.1867 7.99963 12.1867C8.62613 12.1867 9.21588 12.0703 9.76713 11.8717L10.4409 12.5472C9.67083 12.8837 8.83999 13.0588 7.99963 13.0617C3.62463 13.0617 0.999634 8.24917 0.999634 8.24917C0.999634 8.24917 1.82126 6.7433 3.31051 5.41592L3.93001 6.0363L3.93088 6.03542ZM12.9399 13.8089L2.43988 3.30892L3.05938 2.68942L13.5594 13.1894L12.9399 13.8089Z" fill="#6C757D"/>
</g>
</g>
<defs>
<clipPath id="clip0_2382_448">
<rect width="14" height="14" fill="white" transform="translate(1 1.25)"/>
</clipPath>
<clipPath id="clip1_2382_448">
<rect width="14" height="14" fill="white" transform="translate(1 1.25)"/>
</clipPath>
</defs>
</svg>
